            <svg xmlns="http://www.w3.org/2000/svg" viewBox="0 0 512 512" width="512" height="512">
                <defs>
                    <filter id="dropShadow" x="-20%" y="-20%" width="140%" height="140%">
    <feDropShadow dx="0" dy="16" stdDeviation="16" flood-color="#000000" flood-opacity="0.35"/>
</filter>
<filter id="glowEffect" x="-30%" y="-30%" width="160%" height="160%">
    <feGaussianBlur stdDeviation="12" result="blur"/>
    <feComposite in="SourceGraphic" in2="blur" operator="over"/>
</filter><radialGradient id="fireCore" cx="40%" cy="35%" r="60%">
    <stop offset="0%" stop-color="#FFFF00"/>
    <stop offset="45%" stop-color="#FF3D00"/>
    <stop offset="100%" stop-color="#B71C1C"/>
</radialGradient>
<radialGradient id="fireAura" cx="50%" cy="50%" r="50%">
    <stop offset="0%" stop-color="#FFEB3B"/>
    <stop offset="70%" stop-color="#FF5722" stop-opacity="0.8"/>
    <stop offset="100%" stop-color="#D50000" stop-opacity="0"/>
</radialGradient>
                </defs>
                <g id="heart-root">
                    <!-- Surrounding Flame Flares -->
<path d="M 256,20 Q 230,80 200,90 Q 230,120 256,90 Q 280,120 310,90 Q 280,80 256,20 Z" fill="url(#fireAura)"/>
<path d="M 256,440 C 248,432 100,320 60,220 C 24,130 84,64 168,64 C 212,64 242,92 256,116 C 270,92 300,64 344,64 C 428,64 488,130 452,220 C 412,320 264,432 256,440 Z" fill="url(#fireCore)" filter="url(#dropShadow)"/>
<!-- Directional Flame Beams -->
<line x1="80" y1="240" x2="432" y2="240" stroke="#FFFF00" stroke-width="12" stroke-linecap="round" opacity="0.9"/>
<line x1="256" y1="90" x2="256" y2="400" stroke="#FFFF00" stroke-width="12" stroke-linecap="round" opacity="0.9"/>
<!-- Arrows -->
<polygon points="432,240 400,220 400,260" fill="#FFFF00"/>
<polygon points="80,240 112,220 112,260" fill="#FFFF00"/>
<path d="M 160,96 C 120,96 88,130 96,176 C 104,220 148,260 176,260 C 196,260 172,200 164,168 C 156,136 172,112 200,104 C 188,98 174,96 160,96 Z" fill="#FFFFFF" opacity="0.7"/><!-- Matched State: Bright Radiant Burst Flash -->
<path d="M 256,440 C 248,432 100,320 60,220 C 24,130 84,64 168,64 C 212,64 242,92 256,116 C 270,92 300,64 344,64 C 428,64 488,130 452,220 C 412,320 264,432 256,440 Z" fill="#FFFFFF" opacity="0.5" filter="url(#glowEffect)"/>
<polygon points="256,40 270,220 450,256 270,292 256,472 242,292 62,256 242,220" fill="#FFFFFF" opacity="0.85" filter="url(#glowEffect)"/>
                </g>
            </svg>