            <svg xmlns="http://www.w3.org/2000/svg" viewBox="0 0 512 512" width="512" height="512">
                <defs>
                    <filter id="dropShadow" x="-20%" y="-20%" width="140%" height="140%">
    <feDropShadow dx="0" dy="16" stdDeviation="16" flood-color="#000000" flood-opacity="0.35"/>
</filter>
<filter id="glowEffect" x="-30%" y="-30%" width="160%" height="160%">
    <feGaussianBlur stdDeviation="12" result="blur"/>
    <feComposite in="SourceGraphic" in2="blur" operator="over"/>
</filter><radialGradient id="darkAbyss" cx="35%" cy="35%" r="65%">
    <stop offset="0%" stop-color="#7C4DFF"/>
    <stop offset="45%" stop-color="#311B92"/>
    <stop offset="100%" stop-color="#050014"/>
</radialGradient>
<radialGradient id="sinisterEye" cx="50%" cy="50%" r="50%">
    <stop offset="0%" stop-color="#FF1744"/>
    <stop offset="70%" stop-color="#D50000"/>
    <stop offset="100%" stop-color="#000000" stop-opacity="0"/>
</radialGradient>
                </defs>
                <g id="heart-root">
                    <path d="M 256,440 C 248,432 100,320 60,220 C 24,130 84,64 168,64 C 212,64 242,92 256,116 C 270,92 300,64 344,64 C 428,64 488,130 452,220 C 412,320 264,432 256,440 Z" fill="url(#darkAbyss)" filter="url(#dropShadow)"/>
<!-- Corrupted Tendril Aura -->
<path d="M 256,440 C 248,432 100,320 60,220 C 24,130 84,64 168,64 C 212,64 242,92 256,116 C 270,92 300,64 344,64 C 428,64 488,130 452,220 C 412,320 264,432 256,440 Z" fill="none" stroke="#D50000" stroke-width="8" opacity="0.8"/>
<!-- Sinister Core Glow Eye -->
<circle cx="256" cy="240" r="60" fill="url(#sinisterEye)"/>
<polygon points="256,200 266,230 296,240 266,250 256,280 246,250 216,240 246,230" fill="#FFFFFF"/>
<path d="M 160,96 C 120,96 88,130 96,176 C 104,220 148,260 176,260 C 196,260 172,200 164,168 C 156,136 172,112 200,104 C 188,98 174,96 160,96 Z" fill="#FFFFFF" opacity="0.3"/><!-- Matched State: Bright Radiant Burst Flash -->
<path d="M 256,440 C 248,432 100,320 60,220 C 24,130 84,64 168,64 C 212,64 242,92 256,116 C 270,92 300,64 344,64 C 428,64 488,130 452,220 C 412,320 264,432 256,440 Z" fill="#FFFFFF" opacity="0.5" filter="url(#glowEffect)"/>
<polygon points="256,40 270,220 450,256 270,292 256,472 242,292 62,256 242,220" fill="#FFFFFF" opacity="0.85" filter="url(#glowEffect)"/>
                </g>
            </svg>