            <svg xmlns="http://www.w3.org/2000/svg" viewBox="0 0 512 512" width="512" height="512">
                <defs>
                    <filter id="dropShadow" x="-20%" y="-20%" width="140%" height="140%">
    <feDropShadow dx="0" dy="16" stdDeviation="16" flood-color="#000000" flood-opacity="0.35"/>
</filter>
<filter id="glowEffect" x="-30%" y="-30%" width="160%" height="160%">
    <feGaussianBlur stdDeviation="12" result="blur"/>
    <feComposite in="SourceGraphic" in2="blur" operator="over"/>
</filter><linearGradient id="woodGrain" x1="0%" y1="0%" x2="0%" y2="100%">
    <stop offset="0%" stop-color="#A1887F"/>
    <stop offset="50%" stop-color="#6D4C41"/>
    <stop offset="100%" stop-color="#3E2723"/>
</linearGradient>
                </defs>
                <g id="heart-root">
                    <path d="M 256,440 C 248,432 100,320 60,220 C 24,130 84,64 168,64 C 212,64 242,92 256,116 C 270,92 300,64 344,64 C 428,64 488,130 452,220 C 412,320 264,432 256,440 Z" fill="url(#woodGrain)" filter="url(#dropShadow)"/>
<!-- Horizontal Plank Separators -->
<path d="M 60,180 L 452,180 M 80,290 L 432,290" stroke="#271612" stroke-width="8"/>
<path d="M 256,440 C 248,432 100,320 60,220 C 24,130 84,64 168,64 C 212,64 242,92 256,116 C 270,92 300,64 344,64 C 428,64 488,130 452,220 C 412,320 264,432 256,440 Z" fill="none" stroke="#271612" stroke-width="10"/>
<!-- Nails / Rivets -->
<circle cx="120" cy="160" r="8" fill="#1C100D"/>
<circle cx="392" cy="160" r="8" fill="#1C100D"/>
<circle cx="140" cy="270" r="8" fill="#1C100D"/>
<circle cx="372" cy="270" r="8" fill="#1C100D"/>
<!-- Wood Texture Highlights -->
<path d="M 100,120 Q 256,150 400,120 M 120,230 Q 256,250 380,230" fill="none" stroke="#D7CCC8" stroke-width="3" opacity="0.4"/><!-- Destroyed / Disappearing State: Shattered Shards & Fade -->
<path d="M 256,440 C 248,432 100,320 60,220 C 24,130 84,64 168,64 C 212,64 242,92 256,116 C 270,92 300,64 344,64 C 428,64 488,130 452,220 C 412,320 264,432 256,440 Z" fill="#FFFFFF" opacity="0.2"/>
<g fill="#FFFFFF" opacity="0.8" filter="url(#glowEffect)">
    <polygon points="120,160 160,120 180,180"/>
    <polygon points="360,160 400,120 380,180"/>
    <polygon points="220,360 256,420 290,360"/>
    <circle cx="150" cy="300" r="16"/>
    <circle cx="350" cy="300" r="16"/>
</g>
                </g>
            </svg>